<?xml version="1.0" encoding="utf-8"?>
<!-- Generator: Adobe Illustrator 25.2.3, SVG Export Plug-In . SVG Version: 6.00 Build 0)  -->
<svg version="1.1" id="Layer_1" xmlns="http://www.w3.org/2000/svg" xmlns:xlink="http://www.w3.org/1999/xlink" x="0px" y="0px"
	 viewBox="0 0 72 72" style="enable-background:new 0 0 72 72;" xml:space="preserve">
<style type="text/css">
	.st0{fill:#E54625;}
	.st1{fill:none;}
	.st2{enable-background:new    ;}
	.st3{fill:#9C9E9F;}
</style>
<image style="display:none;overflow:visible;enable-background:new    ;" width="238" height="120" xlink:href="logo.png"  transform="matrix(0.2813 0 0 0.2813 3.9385 16.9154)">
</image>
<image style="display:none;overflow:visible;enable-background:new    ;" width="238" height="120" xlink:href="logo.png"  transform="matrix(0.2813 0 0 0.2813 -15.517 53.6155)">
</image>
<rect x="6.2" y="19.5" class="st0" width="7.1" height="28.2"/>
<rect x="13.7" y="21" class="st1" width="37.9" height="10.6"/>
<g class="st2">
	<path d="M14.2,23.5c0-0.2,0.1-0.5,0.2-0.7c0.2-0.4,0.4-0.8,0.6-1.1c0.3-0.3,0.6-0.5,1-0.7c0.2-0.1,0.4-0.1,0.6-0.2
		c0.2,0,0.4-0.1,0.7-0.1c0.6,0,1.1,0.1,1.5,0.3c0.4,0.2,0.8,0.5,1,0.9c0.3,0.4,0.4,0.8,0.4,1.2h-1.4c-0.2-0.8-0.7-1.2-1.4-1.2
		c-0.6,0-1,0.2-1.3,0.7c-0.3,0.4-0.5,1-0.5,1.8l0,0.1c0,0.4,0.1,0.7,0.2,1.1c0.1,0.3,0.3,0.6,0.6,0.8c0.2,0.2,0.5,0.3,0.9,0.3
		c0.8,0,1.4-0.4,1.6-1.3h1.4c-0.1,0.5-0.2,0.9-0.5,1.3c-0.3,0.4-0.6,0.7-1,0.9c-0.4,0.2-0.9,0.3-1.4,0.3c-0.6,0-1.1-0.1-1.6-0.4
		c-0.5-0.3-0.9-0.7-1.1-1.2c-0.1-0.3-0.2-0.6-0.3-0.9c-0.1-0.3-0.1-0.7-0.1-1.1l0-0.2C14.2,24,14.2,23.8,14.2,23.5z"/>
	<path d="M21.3,21h5v1.2h-3.6v1.5h3.3v1.2h-3.3v1.8h3.8v1.2h-5.2V21z"/>
	<path d="M27.6,21h1.5l2.7,4.8l0-4.8h1.3v6.8h-1.4L29,23l0,4.9h-1.3V21z"/>
	<path d="M36,22.2H34V21h5.5v1.2h-2.1v5.6H36V22.2z"/>
</g>
<rect x="14" y="30.2" class="st1" width="37.9" height="10.6"/>
<g class="st2">
	<path d="M14.7,32.3c0.1-0.4,0.3-0.8,0.6-1.1c0.3-0.3,0.6-0.6,1-0.8c0.4-0.2,0.9-0.3,1.5-0.3c0.8,0,1.4,0.2,1.9,0.5
		c0.5,0.4,0.8,0.8,1.1,1.3c0.2,0.5,0.3,1.1,0.3,1.7c0,0.2,0,0.4,0,0.4c0,0,0,0.1,0,0.2c0,0.2,0,0.3,0,0.4c0,0.3-0.1,0.5-0.2,0.8
		c-0.1,0.2-0.2,0.5-0.4,0.7l0.7,0.7l-0.8,0.8l-0.8-0.8c-0.6,0.3-1.2,0.5-1.8,0.5c-0.3,0-0.6,0-0.8-0.1c-0.3-0.1-0.5-0.1-0.7-0.2
		c-0.2-0.1-0.4-0.2-0.6-0.4c-0.2-0.1-0.3-0.3-0.5-0.5c-0.3-0.3-0.4-0.7-0.6-1.2c-0.1-0.4-0.2-0.9-0.2-1.4
		C14.5,33.1,14.5,32.7,14.7,32.3z M16.1,34.9c0.1,0.2,0.2,0.4,0.4,0.6c0.2,0.2,0.4,0.3,0.6,0.4c0.2,0.1,0.4,0.1,0.7,0.1
		c0.3,0,0.6-0.1,0.8-0.2l-0.7-0.6l0.7-0.8l0.7,0.7c0.1-0.2,0.2-0.4,0.2-0.6c0.1-0.2,0.1-0.4,0.1-0.5c0-0.1,0-0.2,0-0.5
		c0-0.4-0.1-0.8-0.2-1.1c-0.1-0.4-0.3-0.7-0.6-0.9c-0.3-0.2-0.6-0.3-1-0.3c-0.3,0-0.6,0.1-0.9,0.2c-0.3,0.1-0.5,0.4-0.7,0.7
		c-0.2,0.4-0.3,0.8-0.3,1.5l0,0.4C15.9,34.4,16,34.6,16.1,34.9z"/>
	<path d="M22.1,30.2h1.5v4.4c0,0.3,0.1,0.6,0.2,0.8c0.1,0.2,0.3,0.4,0.5,0.4c0.2,0.1,0.4,0.1,0.6,0.1c0.9,0,1.4-0.4,1.4-1.3v-4.5
		h1.5v4.5c0,0.5-0.1,0.9-0.2,1.2c-0.2,0.3-0.4,0.6-0.6,0.8c-0.2,0.2-0.5,0.3-0.9,0.4c-0.3,0.1-0.7,0.1-1.1,0.1
		c-0.5,0-0.9-0.1-1.3-0.2c-0.4-0.2-0.8-0.4-1-0.8c-0.3-0.4-0.4-0.8-0.4-1.4V30.2z"/>
	<path d="M30.9,30.2h1.7L35,37h-1.6L33,35.6h-2.5L30,37h-1.5L30.9,30.2z M32.6,34.5l-0.9-2.7l-0.9,2.7H32.6z"/>
	<path d="M36.3,31.4h-2.1v-1.2h5.5v1.2h-2.1V37h-1.4V31.4z"/>
	<path d="M40.6,30.2h3.5c0.5,0,0.9,0.1,1.2,0.3c0.3,0.2,0.6,0.4,0.7,0.7c0.2,0.3,0.2,0.6,0.2,0.9c0,0.2,0,0.5-0.1,0.7
		c-0.1,0.2-0.2,0.4-0.4,0.6s-0.3,0.3-0.6,0.4c0.4,0.1,0.6,0.3,0.7,0.6c0.1,0.3,0.2,0.6,0.2,1v0.3l0,0.3c0,0.3,0,0.5,0.1,0.7
		c0,0.2,0.1,0.2,0.2,0.3V37h-1.6c-0.1-0.1-0.1-0.3-0.1-0.5l0-0.6l0-0.6c0-0.1,0-0.2,0-0.3c0,0,0-0.1,0-0.2l0-0.1
		c0-0.1-0.1-0.2-0.3-0.3c-0.2-0.1-0.4-0.1-0.7-0.1H42V37h-1.4V30.2z M43.8,33.2c0.4,0,0.6-0.1,0.8-0.2c0.1-0.2,0.2-0.4,0.2-0.7
		c0-0.2-0.1-0.4-0.2-0.6c-0.2-0.2-0.4-0.3-0.8-0.3H42v1.8H43.8z"/>
	<path d="M47.5,30.2h5v1.2h-3.6v1.5h3.3v1.2h-3.3v1.8h3.8V37h-5.2V30.2z"/>
</g>
<g>
	<path d="M40,39.2h3.2c0.3,0,0.6,0.1,0.9,0.2c0.3,0.1,0.5,0.3,0.7,0.5s0.3,0.4,0.4,0.7c0.1,0.2,0.1,0.5,0.1,0.8
		c0,0.7-0.2,1.2-0.5,1.6c-0.3,0.4-0.9,0.6-1.6,0.6h-1.7v2.5H40V39.2z M42.8,42.4c0.3,0,0.5,0,0.7-0.1s0.2-0.2,0.3-0.4
		c0-0.1,0.1-0.3,0.1-0.5c0-0.3-0.1-0.6-0.2-0.8c-0.2-0.2-0.5-0.3-1-0.3h-1.2v2L42.8,42.4L42.8,42.4z"/>
	<path d="M47.2,39.2h1.7l2.4,6.8h-1.6l-0.4-1.4h-2.5L46.3,46h-1.5L47.2,39.2z M48.9,43.5L48,40.8l-0.9,2.7H48.9z"/>
	<path d="M52.1,39.2h3.5c0.5,0,0.9,0.1,1.2,0.3s0.6,0.4,0.7,0.7c0.2,0.3,0.2,0.6,0.2,0.9c0,0.2,0,0.5-0.1,0.7s-0.2,0.4-0.4,0.6
		c-0.2,0.2-0.3,0.3-0.6,0.4c0.4,0.1,0.6,0.3,0.7,0.6c0.1,0.3,0.2,0.6,0.2,1v0.3V45c0,0.3,0,0.5,0.1,0.7c0,0.2,0.1,0.2,0.2,0.3v0.2
		h-1.6c-0.1-0.1-0.1-0.3-0.1-0.5v-0.6v-0.6c0-0.1,0-0.2,0-0.3c0,0,0-0.1,0-0.2v-0.1c0-0.1-0.1-0.2-0.3-0.3s-0.4-0.1-0.7-0.1h-1.5
		v2.7h-1.4v-7H52.1z M55.2,42.3c0.4,0,0.6-0.1,0.8-0.2c0.1-0.2,0.2-0.4,0.2-0.7c0-0.2-0.1-0.4-0.2-0.6c-0.2-0.2-0.4-0.3-0.8-0.3
		h-1.8v1.8H55.2z"/>
	<path d="M58.7,39.2h1.4V46h-1.4V39.2z"/>
	<path d="M62.3,44c0,0.2,0.1,0.5,0.2,0.6c0.1,0.2,0.3,0.3,0.5,0.4c0.2,0.1,0.4,0.1,0.7,0.1c1,0,1.5-0.3,1.5-0.8
		c0-0.2-0.1-0.4-0.2-0.5s-0.2-0.2-0.4-0.2l-0.7-0.2l-0.7-0.2c-0.4-0.1-0.8-0.2-1.2-0.4c-0.3-0.1-0.6-0.4-0.8-0.6
		C61.1,42,61,41.6,61,41.1c0-0.4,0.1-0.8,0.3-1.1s0.5-0.6,0.9-0.7c0.4-0.2,0.8-0.2,1.4-0.2c0.5,0,0.9,0.1,1.3,0.2
		c0.4,0.1,0.6,0.3,0.8,0.5c0.2,0.2,0.3,0.5,0.4,0.7s0.1,0.3,0.1,0.4c0,0.1,0,0.2,0,0.4h-1.4c-0.1-0.7-0.5-1-1.4-1
		c-0.3,0-0.6,0.1-0.8,0.2c-0.2,0.1-0.4,0.3-0.4,0.6c0,0.4,0.2,0.6,0.5,0.7l1,0.2l0.7,0.2c0.5,0.1,0.9,0.3,1.2,0.4
		c0.3,0.1,0.5,0.3,0.6,0.6c0.1,0.2,0.2,0.5,0.2,0.9c0,0.5-0.1,0.8-0.3,1.2c-0.2,0.3-0.5,0.5-0.8,0.7s-0.6,0.3-0.8,0.3
		c-0.1,0-0.3,0-0.4,0.1l0,0c-0.1,0-0.2,0-0.3,0c-1,0-1.7-0.2-2.2-0.6c-0.5-0.4-0.8-1-0.8-1.7h1.5V44z"/>
</g>
<polygon class="st3" points="16.6,39.3 18,39.3 16.3,46.2 15.1,46.2 "/>
<polygon class="st3" points="19.2,39.3 20.6,39.3 19,46.2 17.7,46.2 "/>
<polygon class="st3" points="15,40.9 21.3,40.9 21.3,42 15,42 "/>
<polygon class="st3" points="14.4,43.4 20.7,43.4 20.7,44.5 14.5,44.5 "/>
<path class="st3" d="M22.4,41.5v-1c0,0,1.5-0.4,2-1.2h1.1v5.5h1.6v1.4h-5v-1.3h1.7V41C23.9,41,23,41.6,22.4,41.5z"/>
<path class="st3" d="M32.6,41.6c0,0-0.4-2.3-2.5-2.3s-2.4,2.4-2.4,2.4v2.2c0,0,0.4,2.3,2.5,2.3s2.4-2.1,2.4-2.1V41.6z M31.1,44.3
	L31.1,44.3c0,0.1-0.2,0.8-1,0.8c-0.9,0-0.9-0.8-0.9-0.8v-2.9v0.1v-0.1v0.1c0-0.2,0.2-0.8,1-0.8c0.9,0,0.9,0.8,0.9,0.8V44.3
	C31.1,44.2,31.1,44.2,31.1,44.3L31.1,44.3z"/>
<path class="st3" d="M38,43.4v-4h-1.8c-0.1,0.5-2.5,3.8-2.5,3.8v1.3h2.7v1.6h1.5v-1.7H39v-1.1h-1V43.4z M36.5,43.4h-1.8
	c0.5-0.3,1.3-2.3,1.3-2.3h0.5V43.4z"/>
</svg>
