<?xml version="1.0" encoding="utf-8"?>
<!-- Generator: Adobe Illustrator 25.2.3, SVG Export Plug-In . SVG Version: 6.00 Build 0)  -->
<svg version="1.1" id="Layer_1" xmlns="http://www.w3.org/2000/svg" xmlns:xlink="http://www.w3.org/1999/xlink" x="0px" y="0px"
	 viewBox="0 0 72 72" style="enable-background:new 0 0 72 72;" xml:space="preserve">
<style type="text/css">
	.st0{fill:#E54625;}
	.st1{fill:none;}
	.st2{font-family:'SwanseaBold';}
	.st3{font-size:9.5px;}
	.st4{fill:#9C9E9F;}
</style>
<image style="display:none;overflow:visible;" width="238" height="120" xlink:href="logo.png"  transform="matrix(0.2813 0 0 0.2813 3.9385 16.9154)">
</image>
<image style="display:none;overflow:visible;" width="238" height="120" xlink:href="logo.png"  transform="matrix(0.2813 0 0 0.2813 -15.517 53.6155)">
</image>
<rect x="6.2" y="19.5" class="st0" width="7.1" height="28.2"/>
<rect x="13.7" y="21" class="st1" width="37.9" height="10.6"/>
<text transform="matrix(1 0 0 1 13.7445 27.8427)" class="st2 st3">CENT</text>
<rect x="14" y="30.2" class="st1" width="37.9" height="10.6"/>
<text transform="matrix(1 0 0 1 14.0487 37.0448)" class="st2 st3">QUATRE</text>
<rect x="14.6" y="39.1" class="st1" width="53.8" height="10.6"/>
<text transform="matrix(1 0 0 1 14.5811 45.9431)" class="st2 st3">                                     </text>
<polygon class="st4" points="16.6,39.3 18,39.3 16.3,46.2 15.1,46.2 "/>
<polygon class="st4" points="19.2,39.3 20.6,39.3 19,46.2 17.7,46.2 "/>
<polygon class="st4" points="15,40.9 21.3,40.9 21.3,42 15,42 "/>
<polygon class="st4" points="14.4,43.4 20.7,43.4 20.7,44.5 14.5,44.5 "/>
<path class="st4" d="M22.4,41.5v-1c0,0,1.5-0.4,2-1.2h1.1v5.5h1.6v1.4h-5v-1.3h1.7V41C23.9,41,23,41.6,22.4,41.5z"/>
<path class="st4" d="M32.6,41.6c0,0-0.4-2.3-2.5-2.3c-2.1,0-2.4,2.4-2.4,2.4l0,2.2c0,0,0.4,2.3,2.5,2.3c2.1,0,2.4-2.1,2.4-2.1
	L32.6,41.6z M31.1,44.3L31.1,44.3c0,0.1-0.2,0.8-1,0.8c-0.9,0-0.9-0.8-0.9-0.8v-2.9c0,0,0,0.1,0,0.1l0-0.1v0.1c0-0.2,0.2-0.8,1-0.8
	c0.9,0,0.9,0.8,0.9,0.8V44.3c0-0.1,0-0.1,0-0.1L31.1,44.3z"/>
<path class="st4" d="M38,43.4v-4h-1.8c-0.1,0.5-2.5,3.8-2.5,3.8v1.3h2.7v1.6h1.5l0-1.7h1.1v-1.1H38z M36.5,43.4h-1.8
	c0.5-0.3,1.3-2.3,1.3-2.3h0.5V43.4z"/>
</svg>
