<?xml version="1.0" encoding="utf-8"?>
<!-- Generator: Adobe Illustrator 25.2.3, SVG Export Plug-In . SVG Version: 6.00 Build 0)  -->
<svg version="1.1" id="Layer_1" xmlns="http://www.w3.org/2000/svg" xmlns:xlink="http://www.w3.org/1999/xlink" x="0px" y="0px"
	 viewBox="0 0 72 72" style="enable-background:new 0 0 72 72;" xml:space="preserve">
<style type="text/css">
	.st0{fill:#E54625;}
	.st1{fill:none;}
	.st2{font-family:'SwanseaBold';}
	.st3{font-size:9.5px;}
	.st4{fill:#9C9E9F;}
</style>
<image style="display:none;overflow:visible;" width="238" height="120" xlink:href="logo.png"  transform="matrix(0.2813 0 0 0.2813 3.9385 16.9154)">
</image>
<image style="display:none;overflow:visible;" width="238" height="120" xlink:href="logo.png"  transform="matrix(0.2813 0 0 0.2813 -15.517 53.6155)">
</image>
<rect x="6.2" y="19.5" class="st0" width="7.1" height="28.2"/>
<rect x="13.7" y="21" class="st1" width="37.9" height="10.6"/>
<text transform="matrix(1 0 0 1 13.7445 27.8427)" class="st2 st3">CENT</text>
<rect x="14" y="30.2" class="st1" width="37.9" height="10.6"/>
<text transform="matrix(1 0 0 1 14.0487 37.0448)" class="st2 st3">QUATRE</text>
<g>
	<path d="M40,39.2h3.2c0.3,0,0.6,0.1,0.9,0.2c0.3,0.1,0.5,0.3,0.7,0.5c0.2,0.2,0.3,0.4,0.4,0.7c0.1,0.2,0.1,0.5,0.1,0.8
		c0,0.7-0.2,1.2-0.5,1.6c-0.3,0.4-0.9,0.6-1.6,0.6h-1.7v2.5H40V39.2z M42.8,42.4c0.3,0,0.5,0,0.7-0.1c0.2-0.1,0.2-0.2,0.3-0.4
		c0-0.1,0.1-0.3,0.1-0.5c0-0.3-0.1-0.6-0.2-0.8c-0.2-0.2-0.5-0.3-1-0.3h-1.2v2H42.8z"/>
	<path d="M47.2,39.2h1.7l2.4,6.8h-1.6l-0.4-1.4h-2.5l-0.5,1.4h-1.5L47.2,39.2z M48.9,43.5l-0.9-2.7l-0.9,2.7H48.9z"/>
	<path d="M52.1,39.2h3.5c0.5,0,0.9,0.1,1.2,0.3c0.3,0.2,0.6,0.4,0.7,0.7c0.2,0.3,0.2,0.6,0.2,0.9c0,0.2,0,0.5-0.1,0.7
		c-0.1,0.2-0.2,0.4-0.4,0.6c-0.2,0.2-0.3,0.3-0.6,0.4c0.4,0.1,0.6,0.3,0.7,0.6c0.1,0.3,0.2,0.6,0.2,1v0.3l0,0.3c0,0.3,0,0.5,0.1,0.7
		c0,0.2,0.1,0.2,0.2,0.3v0.2h-1.6c-0.1-0.1-0.1-0.3-0.1-0.5l0-0.6l0-0.6c0-0.1,0-0.2,0-0.3c0,0,0-0.1,0-0.2l0-0.1
		c0-0.1-0.1-0.2-0.3-0.3c-0.2-0.1-0.4-0.1-0.7-0.1h-1.5v2.7h-1.4V39.2z M55.2,42.3c0.4,0,0.6-0.1,0.8-0.2c0.1-0.2,0.2-0.4,0.2-0.7
		c0-0.2-0.1-0.4-0.2-0.6c-0.2-0.2-0.4-0.3-0.8-0.3h-1.8v1.8H55.2z"/>
	<path d="M58.7,39.2h1.4v6.8h-1.4V39.2z"/>
	<path d="M62.3,44c0,0.2,0.1,0.5,0.2,0.6c0.1,0.2,0.3,0.3,0.5,0.4c0.2,0.1,0.4,0.1,0.7,0.1c1,0,1.5-0.3,1.5-0.8
		c0-0.2-0.1-0.4-0.2-0.5c-0.1-0.1-0.2-0.2-0.4-0.2l-0.7-0.2l-0.7-0.2c-0.4-0.1-0.8-0.2-1.2-0.4c-0.3-0.1-0.6-0.4-0.8-0.6
		C61.1,42,61,41.6,61,41.1c0-0.4,0.1-0.8,0.3-1.1c0.2-0.3,0.5-0.6,0.9-0.7c0.4-0.2,0.8-0.2,1.4-0.2c0.5,0,0.9,0.1,1.3,0.2
		c0.4,0.1,0.6,0.3,0.8,0.5c0.2,0.2,0.3,0.5,0.4,0.7c0.1,0.2,0.1,0.3,0.1,0.4c0,0.1,0,0.2,0,0.4h-1.4c-0.1-0.7-0.5-1-1.4-1
		c-0.3,0-0.6,0.1-0.8,0.2c-0.2,0.1-0.4,0.3-0.4,0.6c0,0.4,0.2,0.6,0.5,0.7l1,0.2l0.7,0.2c0.5,0.1,0.9,0.3,1.2,0.4
		c0.3,0.1,0.5,0.3,0.6,0.6c0.1,0.2,0.2,0.5,0.2,0.9c0,0.5-0.1,0.8-0.3,1.2c-0.2,0.3-0.5,0.5-0.8,0.7c-0.3,0.2-0.6,0.3-0.8,0.3
		c-0.1,0-0.3,0-0.4,0.1h0c-0.1,0-0.2,0-0.3,0c-1,0-1.7-0.2-2.2-0.6c-0.5-0.4-0.8-1-0.8-1.7H62.3z"/>
</g>
<polygon class="st4" points="16.6,39.3 18,39.3 16.3,46.2 15.1,46.2 "/>
<polygon class="st4" points="19.2,39.3 20.6,39.3 19,46.2 17.7,46.2 "/>
<polygon class="st4" points="15,40.9 21.3,40.9 21.3,42 15,42 "/>
<polygon class="st4" points="14.4,43.4 20.7,43.4 20.7,44.5 14.5,44.5 "/>
<path class="st4" d="M22.4,41.5v-1c0,0,1.5-0.4,2-1.2h1.1v5.5h1.6v1.4h-5v-1.3h1.7V41C23.9,41,23,41.6,22.4,41.5z"/>
<path class="st4" d="M32.6,41.6c0,0-0.4-2.3-2.5-2.3c-2.1,0-2.4,2.4-2.4,2.4l0,2.2c0,0,0.4,2.3,2.5,2.3c2.1,0,2.4-2.1,2.4-2.1
	L32.6,41.6z M31.1,44.3L31.1,44.3c0,0.1-0.2,0.8-1,0.8c-0.9,0-0.9-0.8-0.9-0.8v-2.9c0,0,0,0.1,0,0.1l0-0.1v0.1c0-0.2,0.2-0.8,1-0.8
	c0.9,0,0.9,0.8,0.9,0.8V44.3c0-0.1,0-0.1,0-0.1L31.1,44.3z"/>
<path class="st4" d="M38,43.4v-4h-1.8c-0.1,0.5-2.5,3.8-2.5,3.8v1.3h2.7v1.6h1.5l0-1.7h1.1v-1.1H38z M36.5,43.4h-1.8
	c0.5-0.3,1.3-2.3,1.3-2.3h0.5V43.4z"/>
</svg>
